<svg width="16" height="11" viewBox="0 0 16 11" fill="none" xmlns="http://www.w3.org/2000/svg">
<path fill-rule="evenodd" clip-rule="evenodd" d="M12 10.6665C13.8409 10.6665 15.3333 9.17412 15.3333 7.33317C15.3333 5.65648 14.0954 4.26892 12.4836 4.03467C11.9167 2.07025 10.1057 0.666504 7.99999 0.666504C6.43561 0.666504 5.006 1.44322 4.14658 2.70002C2.17801 2.95548 0.666656 4.63902 0.666656 6.6665C0.666656 8.87564 2.45752 10.6665 4.66666 10.6665H12ZM14 7.33317C14 8.43774 13.1046 9.33317 12 9.33317H4.66666C3.1939 9.33317 1.99999 8.13926 1.99999 6.6665C1.99999 5.23347 3.13288 4.05794 4.55976 4.00193L4.9271 3.98751L5.11093 3.66916C5.70286 2.64412 6.79492 1.99984 7.99999 1.99984C9.63408 1.99984 11.0202 3.18401 11.2873 4.77727L11.3825 5.34529L11.9583 5.33359C11.9791 5.33324 11.9791 5.33324 12 5.33317C13.1046 5.33317 14 6.2286 14 7.33317Z" fill="#207742"/>
</svg>
