<svg width="44" height="44" viewBox="0 0 44 44" fill="none" xmlns="http://www.w3.org/2000/svg">
<circle cx="22" cy="22" r="3" fill="#207742"/>
<path d="M28.364 15.636C29.1997 16.4718 29.8627 17.4639 30.315 18.5558C30.7673 19.6478 31 20.8181 31 22C31 23.1819 30.7673 24.3522 30.315 25.4442C29.8627 26.5361 29.1997 27.5282 28.364 28.364" stroke="#207742" stroke-width="3"/>
<path d="M15.6361 15.636C14.8003 16.4718 14.1374 17.4639 13.6851 18.5558C13.2328 19.6478 13 20.8181 13 22C13 23.1819 13.2328 24.3522 13.6851 25.4442C14.1374 26.5361 14.8003 27.5282 15.6361 28.364" stroke="#207742" stroke-width="3"/>
<path d="M33.0001 11C34.4446 12.4445 35.5905 14.1595 36.3722 16.0468C37.154 17.9342 37.5564 19.9571 37.5564 22C37.5564 24.0429 37.154 26.0658 36.3722 27.9532C35.5905 29.8405 34.4446 31.5555 33.0001 33" stroke="#207742" stroke-width="3"/>
<path d="M11 11C9.55547 12.4445 8.4096 14.1595 7.62781 16.0468C6.84603 17.9342 6.44366 19.9571 6.44366 22C6.44366 24.0429 6.84603 26.0658 7.62782 27.9532C8.4096 29.8405 9.55547 31.5555 11 33" stroke="#207742" stroke-width="3"/>
</svg>
