<svg width="16" height="16" viewBox="0 0 16 16" fill="none" xmlns="http://www.w3.org/2000/svg"><path fill-rule="evenodd" clip-rule="evenodd" d="M11.68 3.7a.96.96 0 1 0 1.93 0 .96.96 0 0 0-1.93 0Zm-6 4.27a2.67 2.67 0 1 1 5.35 0 2.67 2.67 0 0 1-5.34 0Zm2.68 4.11a4.12 4.12 0 1 1 0-8.23 4.12 4.12 0 0 1 0 8.23ZM14.88 1.5a2.86 2.86 0 0 0-1.06-.7A5.1 5.1 0 0 0 12.1.5C11.13.44 10.84.44 8.37.44c-2.46 0-2.75 0-3.72.05-.9.04-1.4.2-1.72.32-.43.16-.74.36-1.06.69-.32.32-.52.63-.69 1.06a5.1 5.1 0 0 0-.32 1.71C.82 5.24.81 5.54.81 8s0 2.76.05 3.73c.04.9.2 1.39.32 1.71.17.43.37.74.7 1.06.31.33.62.53 1.05.7.33.12.82.27 1.72.31.97.04 1.26.05 3.72.05 2.47 0 2.76 0 3.73-.05a5.1 5.1 0 0 0 1.72-.32c.43-.16.73-.36 1.06-.69.32-.32.52-.63.69-1.06.12-.32.27-.81.31-1.71.05-.97.06-1.27.06-3.73s-.01-2.76-.06-3.73a5.1 5.1 0 0 0-.31-1.71 2.86 2.86 0 0 0-.7-1.06Z" fill="#8D8D8D"/></svg>