<svg width="16" height="14" viewBox="0 0 16 14" fill="none" xmlns="http://www.w3.org/2000/svg"><path fill-rule="evenodd" clip-rule="evenodd" d="M0 12.03a9.29 9.29 0 0 0 5.03 1.47c6.04 0 9.34-5 9.34-9.34v-.42A6.66 6.66 0 0 0 16 2.04a6.5 6.5 0 0 1-1.88.51c.67-.4 1.2-1.04 1.44-1.81a6.6 6.6 0 0 1-2.09.8 3.28 3.28 0 0 0-5.59 2.99A9.31 9.31 0 0 1 1.11 1.1a3.27 3.27 0 0 0 1.02 4.38 3.25 3.25 0 0 1-1.49-.4v.03a3.29 3.29 0 0 0 2.64 3.22 3.25 3.25 0 0 1-1.49.06 3.28 3.28 0 0 0 3.07 2.28A6.58 6.58 0 0 1 0 12.03Z" fill="#8D8D8D"/></svg>