<svg width="37" height="38" viewBox="0 0 37 38" fill="none" xmlns="http://www.w3.org/2000/svg"><path fill-rule="evenodd" clip-rule="evenodd" d="M10 3.5A3.5 3.5 0 0 1 13.5 0h7A3.5 3.5 0 0 1 24 3.5V7h6.5a3.5 3.5 0 0 1 3.5 3.5v9.17a11.06 11.06 0 0 0-3-2.9V10.5a.5.5 0 0 0-.5-.5h-27a.5.5 0 0 0-.5.5v20c0 .28.22.5.5.5h11.7a11.04 11.04 0 0 0 2.25 3H3a3 3 0 0 1-3-3V10.5A3.5 3.5 0 0 1 3.5 7H10V3.5Zm11 0V7h-8V3.5c0-.28.22-.5.5-.5h7c.28 0 .5.22.5.5Z" fill="#207742"/><path fill-rule="evenodd" clip-rule="evenodd" d="M17 26a8 8 0 1 1 14.81 4.2l4.75 4.74-2.12 2.12-4.65-4.65A8 8 0 0 1 17 26Zm8-5a5 5 0 1 0 0 10 5 5 0 0 0 0-10Z" fill="#207742"/></svg>