<svg width="17" height="12" viewBox="0 0 17 12" fill="none" xmlns="http://www.w3.org/2000/svg"><path fill-rule="evenodd" clip-rule="evenodd" d="M6.67 8.17v-4.7l4.54 2.36-4.54 2.34Zm9.97-5.52S16.48 1.5 15.97 1C15.33.33 14.62.32 14.3.3 11.94.12 8.4.12 8.4.12s-3.54 0-5.89.17C2.19.32 1.48.33.84.99.34 1.5.17 2.65.17 2.65S0 4.01 0 5.36v1.27C0 8 .17 9.34.17 9.34S.33 10.49.84 11c.64.67 1.48.65 1.85.72 1.34.12 5.71.16 5.71.16s3.54 0 5.89-.17c.33-.04 1.04-.04 1.68-.71.5-.5.67-1.66.67-1.66s.17-1.35.17-2.7V5.35c0-1.35-.17-2.7-.17-2.7Z" fill="#8D8D8D"/></svg>